<?xml version="1.0" encoding="UTF-8"?>
<svg xmlns="http://www.w3.org/2000/svg" xmlns:xlink="http://www.w3.org/1999/xlink" id="Layer_1" x="0px" y="0px" viewBox="0 0 498.6 498.5" style="enable-background:new 0 0 498.6 498.5;" xml:space="preserve"> <style type="text/css"> .st0{fill-rule:evenodd;clip-rule:evenodd;fill:#000;} </style> <g> <polygon class="st0" points="234.7,255.8 193.5,214.6 146,262.2 146,278.2 158,266.2 191.1,299.4 178.9,311.6 186.9,319.6 253.2,253.2 253.2,237.3 "></polygon> <polygon class="st0" points="42.3,205.9 115.7,205.9 115.7,221.8 103.5,221.8 103.5,273 146,249.3 146,292.7 42.3,292.7 42.3,276.8 54.6,276.8 54.6,221.8 42.3,221.8 "></polygon> <polygon class="st0" points="351.9,205.9 351.9,221.8 364.2,221.8 364.2,276.8 351.9,276.8 351.9,292.7 455.6,292.7 455.6,249.3 413,273 413,221.8 425.3,221.8 425.3,205.9 "></polygon> <path class="st0" d="M187.5,156.6c14.4,0,26.1,11.6,26.1,26.1c0,14.4-11.7,26.1-26.1,26.1s-26.1-11.7-26.1-26.1 C161.3,168.2,173,156.6,187.5,156.6L187.5,156.6z"></path> <path class="st0" d="M249.2,0C111.6,0,0,111.6,0,249.3c0,137.6,111.7,249.2,249.3,249.2s249.3-111.6,249.3-249.2 C498.5,111.6,386.8,0,249.2,0z M249.2,482.7c-128.9,0-233.4-104.6-233.4-233.4c0-129,104.6-233.5,233.5-233.5 c128.8,0,233.4,104.5,233.4,233.5C482.7,378.1,378.1,482.7,249.2,482.7z"></path> <g> <g> <path class="st0" d="M311,205.9h-70v15.8h12.2v55H241v15.9h70C362.7,292.7,363.2,205.9,311,205.9z M301.1,265.6h-3.5v-32.8h2.9 C315.9,232.9,315.9,265.7,301.1,265.6z"></path> </g> </g> </g> </svg>
